<?xml version="1.0" standalone="no"?><!DOCTYPE svg PUBLIC "-//W3C//DTD SVG 1.1//EN" "http://www.w3.org/Graphics/SVG/1.1/DTD/svg11.dtd"><svg t="1623059462994" class="icon" viewBox="0 0 1024 1024" version="1.1" xmlns="http://www.w3.org/2000/svg" p-id="28759" xmlns:xlink="http://www.w3.org/1999/xlink" width="200" height="200"><defs><style type="text/css"></style></defs><path d="M423.424 824.192a12.8 12.8 0 0 1 16.128-17.024 211.9168 211.9168 0 0 0 144.896 0 12.8 12.8 0 0 1 16.128 17.024l-76.8 181.504a12.8 12.8 0 0 1-23.552 0l-76.8-181.504zM512 967.8848l54.4256-128.6656a237.5424 237.5424 0 0 1-108.8512 0L512 967.8848zM512 768C299.9552 768 128 596.0448 128 384 128 171.9552 299.9552 0 512 0c212.0448 0 384 171.9552 384 384 0 212.0448-171.9552 384-384 384z" fill="#ffffff" p-id="28760"></path></svg>