<?xml version="1.0" standalone="no"?><!DOCTYPE svg PUBLIC "-//W3C//DTD SVG 1.1//EN" "http://www.w3.org/Graphics/SVG/1.1/DTD/svg11.dtd"><svg class="icon" width="200px" height="200.00px" viewBox="0 0 1024 1024" version="1.1" xmlns="http://www.w3.org/2000/svg"><path fill="#ffffff" d="M562 141H224v740h576V381H578c-8.837 0-16-7.163-16-16V141z m212.477 176L626 167.654V317h148.477zM848 945H176c-8.837 0-16-7.163-16-16V93c0-8.837 7.163-16 16-16h446.793a8 8 0 0 1 5.673 2.36l233.207 234.572a8 8 0 0 1 2.327 5.64V929c0 8.837-7.163 16-16 16z"  /><path fill="#ffffff" d="M480 581V473a8 8 0 0 1 8-8h48a8 8 0 0 1 8 8v108h108a8 8 0 0 1 8 8v48a8 8 0 0 1-8 8H544v108a8 8 0 0 1-8 8h-48a8 8 0 0 1-8-8V645H372a8 8 0 0 1-8-8v-48a8 8 0 0 1 8-8h108z"  /></svg>