<?xml version="1.0" standalone="no"?><!DOCTYPE svg PUBLIC "-//W3C//DTD SVG 1.1//EN" "http://www.w3.org/Graphics/SVG/1.1/DTD/svg11.dtd"><svg class="icon" width="200px" height="200.00px" viewBox="0 0 1024 1024" version="1.1" xmlns="http://www.w3.org/2000/svg"><path fill="#ffffff" d="M853.312 501.312c-17.024 0-32 14.976-32 32v320c0 6.4-4.224 10.688-10.624 10.688h-640c-6.4 0-10.688-4.288-10.688-10.688v-640c0-6.4 4.288-10.624 10.688-10.624h320c17.024 0 32-14.976 32-32 0-17.088-14.976-32-32-32h-320c-40.576 0-74.688 34.112-74.688 74.624v640c0 40.576 34.112 74.688 74.688 74.688h640c40.512 0 74.624-34.112 74.624-74.688v-320c0-17.024-14.912-32-32-32z m-448-17.024l-32 125.824c-2.112 10.688 0 23.488 8.576 29.888 6.4 6.4 14.912 8.512 23.424 8.512h8.576l125.824-32a34.368 34.368 0 0 0 14.976-8.512l300.8-300.8c38.4-38.4 38.4-102.4 0-140.8-38.4-38.4-102.4-38.4-140.8 0l-300.8 302.912a34.368 34.368 0 0 0-8.576 14.976z m59.776 23.424l296.512-294.4c12.8-12.8 36.288-12.8 49.088 0 12.8 12.8 12.8 36.288 0 49.088l-294.4 296.512L450.112 576l14.976-68.288z" /></svg>