<?xml version="1.0" standalone="no"?><!DOCTYPE svg PUBLIC "-//W3C//DTD SVG 1.1//EN" "http://www.w3.org/Graphics/SVG/1.1/DTD/svg11.dtd"><svg t="1624000607459" class="icon" viewBox="0 0 1152 1024" version="1.1" xmlns="http://www.w3.org/2000/svg" p-id="3366" xmlns:xlink="http://www.w3.org/1999/xlink" width="225" height="200"><defs><style type="text/css"></style></defs><path d="M996.992 994.304H156.672a154.624 154.624 0 0 1-154.432-154.496V183.936A154.624 154.624 0 0 1 156.8 29.504h840.256a154.624 154.624 0 0 1 154.432 154.432v655.872a154.624 154.624 0 0 1-154.432 154.496zM156.672 97.024A87.04 87.04 0 0 0 69.76 183.872v655.872c0 48 39.04 87.04 86.976 87.04h840.256a87.04 87.04 0 0 0 86.976-87.04V183.936a87.04 87.04 0 0 0-87.04-86.976H156.8z m32.64 214.976a98.56 98.56 0 1 0 197.12 0 98.56 98.56 0 0 0-197.12 0z m29.44 465.6a33.792 33.792 0 0 1-17.92-46.08c9.216-19.2 22.592-44.608 39.68-71.104 48.192-75.2 100.672-121.408 155.968-137.472 73.344-21.376 117.632 6.72 153.216 29.312 30.464 19.392 54.528 34.688 98.88 27.712 7.04-1.152 14.592-11.584 19.648-20.16 10.176-17.088 19.2-41.152 28.608-66.688 17.408-46.592 37.12-99.456 73.088-132.544 28.928-26.56 72.512-35.52 129.6-26.688 12.608 1.92 24.448 4.48 34.816 7.232a33.728 33.728 0 0 1-16.64 65.344c-35.136-8.96-82.048-14.4-102.08 3.968-24.064 22.016-40.064 64.896-55.424 106.24-22.336 59.52-45.248 121.216-101.056 129.984-69.504 10.88-111.68-15.872-145.6-37.312-32.512-20.736-54.08-34.432-98.048-21.504-38.4 11.264-78.976 48.64-117.376 108.16a589.44 589.44 0 0 0-36.544 64.96 33.664 33.664 0 0 1-42.752 16.64z" fill="#8ebda6" p-id="3367"></path></svg>