<?xml version="1.0" standalone="no"?><!DOCTYPE svg PUBLIC "-//W3C//DTD SVG 1.1//EN" "http://www.w3.org/Graphics/SVG/1.1/DTD/svg11.dtd"><svg t="1623312348409" class="icon" viewBox="0 0 1024 1024" version="1.1" xmlns="http://www.w3.org/2000/svg" p-id="7045" xmlns:xlink="http://www.w3.org/1999/xlink" width="200" height="200"><defs><style type="text/css"></style></defs><path d="M903.087646 594.168794v304.90615a33.278003 33.278003 0 0 1-32.140294 34.415713H553.24197a33.562431 33.562431 0 0 1-32.140294-35.268995v-304.337295a32.993576 32.993576 0 0 1 32.140294-34.70014h317.705382a34.131285 34.131285 0 0 1 32.140294 34.984567zM472.180167 92.154471H154.759212a32.993576 32.993576 0 0 0-32.140294 34.131285v303.768441a33.278003 33.278003 0 0 0 31.287012 34.984567H472.180167a33.562431 33.562431 0 0 0 23.607472-10.523813 34.415713 34.415713 0 0 0 8.817249-24.176327V127.139038a34.131285 34.131285 0 0 0-32.424721-34.984567z m-81.630658 836.216493a236.074724 236.074724 0 0 1-230.101749-230.670604h58.307612a10.80824 10.80824 0 0 0 8.817249-17.065643l-103.531566-154.159639a11.092668 11.092668 0 0 0-17.918925 0L2.590565 680.634717a10.523813 10.523813 0 0 0 0 11.092668 9.954958 9.954958 0 0 0 9.386103 5.688548h58.876467A329.935759 329.935759 0 0 0 380.878978 1023.938564h4.835266a47.7838 47.7838 0 0 0 4.835265-95.5676z m631.428781-636.832901a9.954958 9.954958 0 0 0-9.386103-5.688547h-63.142878A329.651332 329.651332 0 0 0 640.845603 0a47.499372 47.499372 0 0 0-47.499373 48.068227 49.490364 49.490364 0 0 0 38.966551 47.214945h1.990992a238.065716 238.065716 0 0 1 223.844347 190.281916h-52.619065a10.80824 10.80824 0 0 0-9.670531 5.688548 11.092668 11.092668 0 0 0 0 10.80824l103.531566 154.444067a11.092668 11.092668 0 0 0 9.101676 4.550838 10.80824 10.80824 0 0 0 8.817249-4.550838l103.531566-154.444067a9.954958 9.954958 0 0 0 1.137709-10.523813z" fill="#8ebda6" p-id="7046"></path></svg>