<?xml version="1.0" standalone="no"?><!DOCTYPE svg PUBLIC "-//W3C//DTD SVG 1.1//EN" "http://www.w3.org/Graphics/SVG/1.1/DTD/svg11.dtd"><svg t="1623138199398" class="icon" viewBox="0 0 1024 1024" version="1.1" xmlns="http://www.w3.org/2000/svg" p-id="10556" xmlns:xlink="http://www.w3.org/1999/xlink" width="200" height="200"><defs><style type="text/css"></style></defs><path d="M700.893867 15.633067H110.114133C57.890133 15.633067 15.701333 57.9584 15.701333 110.114133v817.902934c0 52.292267 42.325333 94.549333 94.481067 94.549333h817.902933c52.292267 0 94.549333-42.325333 94.549334-94.549333V337.1008L700.893867 15.5648zM279.3472 110.114133h284.8768v270.336c0 26.146133-21.162667 47.240533-47.240533 47.240534H326.656a47.240533 47.240533 0 0 1-47.3088-47.240534v-270.336z m648.669867 817.902934H110.1824V110.1824h74.683733v270.336c0 78.165333 63.488 141.7216 141.789867 141.7216h190.327467c78.2336 0 141.789867-63.488 141.789866-141.789867v-270.336h3.003734l266.103466 266.171734v551.7312h0.136534z m-464.896-594.807467c26.146133 0 47.3088-21.162667 47.3088-47.3088v-56.388267a47.240533 47.240533 0 1 0-94.549334 0v56.388267c0 26.146133 21.162667 47.3088 47.3088 47.3088z" p-id="10557" fill="#ffffff"></path></svg>